<svg width="118" height="123" viewBox="0 0 118 123" fill="none" xmlns="http://www.w3.org/2000/svg">
<g clip-path="url(#clip0_2083_1605)">
<path fill-rule="evenodd" clip-rule="evenodd" d="M85.14 14.83L43.26 40.28H55.17L86.09 21.49L90.63 18.73L103.72 40.28H111.34C113 40.28 114.5 40.96 115.59 42.04C116.68 43.13 117.36 44.63 117.36 46.28V116.87C117.36 118.52 116.68 120.02 115.6 121.1V121.11C114.51 122.2 113.01 122.87 111.35 122.87H6.02C4.36 122.87 2.86 122.2 1.77 121.11V121.1C0.68 120.02 0 118.52 0 116.88V46.28C0 44.63 0.68 43.12 1.76 42.04C2.85 40.95 4.35 40.28 6.01 40.28H8.51L73.53 0.77C74.36 0.27 75.3 0 76.27 0C76.69 0 77.11 0.05 77.52 0.15C78.88 0.48 80.06 1.34 80.78 2.54L87.41 13.45L85.14 14.83ZM5.89 45.62C5.66 45.87 5.47 46.15 5.33 46.46V55.15H112.01V46.28C112.01 46.09 111.94 45.92 111.82 45.81H111.81C111.69 45.69 111.52 45.61 111.33 45.61H6.01C5.97 45.61 5.93 45.61 5.89 45.62ZM15.98 84.71H35.03V91.84H15.98V84.71ZM15.98 101.59H69.23V108.02H15.98V101.59ZM86.21 84.71H105.26V91.84H86.21V84.71ZM62.8 84.71H81.85V91.84H62.8V84.71ZM39.39 84.71H58.44V91.84H39.39V84.71ZM112.01 75.14H5.33V116.87C5.33 117.06 5.4 117.23 5.53 117.35H5.54C5.67 117.48 5.84 117.55 6.01 117.55H111.34C111.52 117.55 111.69 117.47 111.82 117.35C111.95 117.22 112.02 117.05 112.02 116.87V75.14H112.01Z" fill="black"/>
</g>
<defs>
<clipPath id="clip0_2083_1605">
<rect width="117.34" height="122.88" fill="white"/>
</clipPath>
</defs>
</svg>
