<svg width="123" height="98" viewBox="0 0 123 98" fill="none" xmlns="http://www.w3.org/2000/svg">
<path fill-rule="evenodd" clip-rule="evenodd" d="M61.4194 28.6801C65.3909 28.6801 69.2731 29.8577 72.5753 32.0641C75.8774 34.2706 78.4511 37.4066 79.9709 41.0758C81.4907 44.7449 81.8884 48.7823 81.1136 52.6775C80.3388 56.5726 78.4264 60.1505 75.6181 62.9588C72.8099 65.767 69.232 67.6794 65.3369 68.4542C61.4417 69.229 57.4043 68.8314 53.7352 67.3116C50.066 65.7917 46.9299 63.218 44.7235 59.9159C42.5171 56.6138 41.3394 52.7315 41.3394 48.7601C41.3394 43.4345 43.455 38.3271 47.2207 34.5613C50.9865 30.7956 56.0939 28.6801 61.4194 28.6801ZM22.2794 91.3701C23.0955 91.3727 23.8774 91.698 24.4544 92.2751C25.0315 92.8521 25.3568 93.634 25.3594 94.4501C25.3594 94.854 25.2797 95.2541 25.1248 95.6272C24.9699 96.0003 24.7429 96.3392 24.4567 96.6244C24.1706 96.9096 23.831 97.1355 23.4573 97.2892C23.0837 97.4429 22.6834 97.5214 22.2794 97.5201H3.84944C3.03522 97.5201 2.25436 97.1966 1.67862 96.6209C1.10288 96.0451 0.779439 95.2643 0.779439 94.4501V76.3001C0.782534 75.6932 0.964848 75.1007 1.30349 74.5971C1.64213 74.0935 2.12201 73.7012 2.68287 73.4693C3.24374 73.2375 3.86059 73.1765 4.45598 73.2941C5.05137 73.4116 5.59877 73.7025 6.02944 74.1301L6.09944 74.2101C6.6479 74.7694 6.96258 75.5168 6.97944 76.3001V91.3701H22.2794ZM22.2794 5.25986e-05C23.0961 0.00219551 23.8791 0.325467 24.4594 0.900053L24.5294 0.980053C24.9397 1.4175 25.2128 1.96551 25.3151 2.55643C25.4174 3.14734 25.3443 3.75527 25.105 4.30516C24.8657 4.85504 24.4706 5.32279 23.9685 5.65065C23.4663 5.97851 22.8791 6.15213 22.2794 6.15005H6.97944V21.2201C6.93464 22.0053 6.59115 22.7436 6.0194 23.2837C5.44764 23.8237 4.69094 24.1246 3.90444 24.1246C3.11794 24.1246 2.36124 23.8237 1.78948 23.2837C1.21773 22.7436 0.874236 22.0053 0.829439 21.2201V3.08005C0.8192 2.67994 0.88913 2.28182 1.03511 1.90914C1.18109 1.53646 1.40017 1.19677 1.67944 0.910053C1.96114 0.619953 2.29859 0.389798 2.67149 0.233417C3.0444 0.0770362 3.44508 -0.00234181 3.84944 5.25986e-05H22.2794ZM100.559 6.15005C100.155 6.15137 99.7552 6.07293 99.3815 5.91924C99.0079 5.76555 98.6683 5.53962 98.3822 5.25441C98.096 4.96921 97.869 4.63033 97.7141 4.25721C97.5592 3.88408 97.4794 3.48405 97.4794 3.08005C97.4821 2.264 97.8074 1.48212 98.3845 0.905077C98.9615 0.328035 99.7434 0.00268931 100.559 5.25986e-05H118.979C119.793 0.00374312 120.572 0.326979 121.149 0.900053C121.436 1.18615 121.663 1.52605 121.817 1.90018C121.972 2.27431 122.051 2.67529 122.049 3.08005V21.2201C122.049 21.6232 121.97 22.0224 121.816 22.3949C121.661 22.7674 121.435 23.1058 121.15 23.3909C120.865 23.6759 120.527 23.9021 120.154 24.0564C119.782 24.2106 119.383 24.2901 118.979 24.2901C118.165 24.2874 117.385 23.9635 116.808 23.3886C116.231 22.8137 115.905 22.0344 115.899 21.2201V6.15005H100.559ZM100.559 97.5201C100.155 97.5214 99.7552 97.4429 99.3815 97.2892C99.0079 97.1355 98.6683 96.9096 98.3822 96.6244C98.096 96.3392 97.869 96.0003 97.7141 95.6272C97.5592 95.2541 97.4794 94.854 97.4794 94.4501C97.4821 93.634 97.8074 92.8521 98.3845 92.2751C98.9615 91.698 99.7434 91.3727 100.559 91.3701H115.909V76.3001C115.909 75.4858 116.233 74.705 116.809 74.1292C117.384 73.5535 118.165 73.2301 118.979 73.2301C119.794 73.2301 120.575 73.5535 121.15 74.1292C121.726 74.705 122.049 75.4858 122.049 76.3001V94.4501C122.049 95.2643 121.726 96.0451 121.15 96.6209C120.575 97.1966 119.794 97.5201 118.979 97.5201H100.559ZM0.979439 46.2401C3.80014 42.8197 6.85767 39.6018 10.1294 36.6101C24.4694 23.6101 41.4894 16.6101 59.0394 16.2401C76.5894 15.8701 94.5094 22.1401 110.739 35.5301C114.738 38.8367 118.494 42.4259 121.979 46.2701C122.533 46.8792 122.859 47.6616 122.901 48.4839C122.943 49.3062 122.699 50.1177 122.209 50.7801C118.249 56.4174 113.512 61.4673 108.139 65.7801C95.3856 75.867 79.59 81.3343 63.3294 81.2901C46.9201 81.3079 30.9124 76.2155 17.5294 66.7201C11.2187 62.2519 5.56974 56.916 0.749439 50.8701C0.226565 50.1988 -0.0378398 49.3621 0.00437486 48.5123C0.0465896 47.6625 0.392615 46.8562 0.979439 46.2401ZM14.9194 41.8601C12.562 44.0081 10.3253 46.2849 8.21944 48.6801C12.1729 53.2857 16.6727 57.3926 21.6194 60.9101C33.8009 69.5578 48.3706 74.2023 63.3094 74.2001C77.9609 74.2255 92.1895 69.2911 103.679 60.2001C107.783 56.9038 111.476 53.1268 114.679 48.9501C112.009 46.1384 109.177 43.4839 106.199 41.0001C91.3094 28.7401 74.9794 23.0001 59.1294 23.3301C43.2794 23.6601 27.9094 30.0001 14.8694 41.8601H14.9194ZM61.4694 41.4201C62.9236 41.4201 64.345 41.8514 65.5539 42.6595C66.7628 43.4675 67.7049 44.616 68.2609 45.9596C68.8169 47.3033 68.9619 48.7816 68.6775 50.2076C68.3931 51.6337 67.692 52.9433 66.6631 53.9708C65.6342 54.9983 64.3236 55.6976 62.8972 55.98C61.4708 56.2625 59.9926 56.1155 58.6498 55.5577C57.3069 54.9999 56.1597 54.0562 55.3533 52.8462C54.5468 51.6362 54.1175 50.2142 54.1194 48.7601C54.1194 47.7953 54.3096 46.84 54.6791 45.9488C55.0486 45.0577 55.5902 44.2481 56.2728 43.5663C56.9554 42.8846 57.7658 42.3442 58.6575 41.9759C59.5492 41.6076 60.5047 41.4187 61.4694 41.4201Z" fill="#1B1B1B"/>
</svg>
